<?xml version="1.0" encoding="UTF-8"?><svg width="651" height="434" viewBox="82 0 651 434" xmlns="http://www.w3.org/2000/svg" fill="none">
<rect xmlns="http://www.w3.org/2000/svg" width="800" height="217" transform="translate(0 217)" fill="#DA0000"/>
<rect xmlns="http://www.w3.org/2000/svg" width="800" height="217" fill="black"/>
<path xmlns="http://www.w3.org/2000/svg" d="M318.146 83.79L318.119 83.8111L318.094 83.8331C312.088 89.0198 304.781 94.4304 302.071 96.0788C300.104 97.0105 298.548 98.7298 297.493 100.566C296.413 102.446 295.734 104.661 295.734 106.736C295.734 108.079 295.327 109.985 294.607 111.95C293.889 113.906 292.94 115.708 292.006 116.875L291.99 116.895L291.975 116.914C290.393 118.997 289.326 121.991 288.638 125.26C287.94 128.575 287.593 132.368 287.575 136.206C287.54 143.798 288.795 151.959 291.518 157.108C295.405 164.604 297.123 169.493 297.123 173.125C297.123 176.471 295.651 179.004 292.054 181.83L293.29 183.402L292.054 181.83C289.902 183.521 286.647 187.168 283.177 191.575C279.666 196.034 275.809 201.434 272.438 206.771C266.946 215.282 263.846 220.329 262.635 224.112C261.998 226.104 261.846 227.84 262.153 229.598C262.45 231.292 263.156 232.884 264.001 234.575H264.001C264.383 235.338 264.862 236.772 265.377 238.842C265.882 240.871 266.393 243.388 266.874 246.235C267.834 251.929 268.659 258.872 269.072 265.744L269.073 265.762L269.074 265.78C270.468 283.626 272.842 299.504 275.619 310.823C277.002 316.464 278.511 321.078 280.099 324.253C280.887 325.829 281.759 327.184 282.744 328.129C283.733 329.076 285.101 329.842 286.72 329.534L286.75 329.528L286.78 329.521C287.313 329.403 288.22 329.549 289.329 330.26C290.399 330.946 291.417 332.015 292.09 333.249C293.038 334.987 294.324 336.537 295.728 337.601C297.029 338.586 298.844 339.449 300.7 338.96C306.289 337.824 312.074 340.795 315.074 347.272C315.706 348.746 316.306 349.995 316.919 350.976C317.519 351.937 318.253 352.845 319.238 353.385C320.344 353.992 321.507 353.999 322.596 353.621C323.581 353.279 324.517 352.622 325.404 351.883C326.205 351.216 326.767 350.823 327.166 350.616C327.221 350.588 327.269 350.565 327.31 350.547C327.509 350.827 327.763 351.326 328.09 352.176L328.095 352.188L328.1 352.201C329.486 355.667 332.45 357.667 335.555 357.762C338.679 357.859 341.651 356.009 342.922 352.489C343.215 351.856 343.463 351.466 343.655 351.237C343.73 351.147 343.786 351.095 343.822 351.066C343.84 351.07 343.862 351.077 343.891 351.087C344.075 351.151 344.377 351.305 344.825 351.637C345.57 352.256 346.599 352.755 347.664 353.167C348.801 353.607 350.156 354.012 351.636 354.373C354.595 355.095 358.171 355.666 361.738 355.951C364.98 356.222 368.512 356.764 371.539 357.377C374.626 358.001 377.003 358.661 378.033 359.119L378.088 359.143L378.143 359.164C379.23 359.571 380.356 359.949 381.34 359.996C381.869 360.022 382.517 359.963 383.145 359.635C383.812 359.287 384.257 358.74 384.525 358.144C384.983 357.123 384.961 355.841 384.862 354.662C384.754 353.38 384.496 351.739 384.15 349.729L384.144 349.697L384.138 349.666L383.444 346.295L385.803 348.465C385.807 348.469 385.811 348.472 385.814 348.476C387.16 349.75 388.352 350.78 389.41 351.559C390.451 352.324 391.469 352.926 392.459 353.231C393.492 353.549 394.655 353.583 395.725 352.96C396.692 352.397 397.256 351.479 397.612 350.619C397.641 350.563 397.669 350.509 397.695 350.458C398.003 350.828 398.378 351.335 398.846 352.01C400.879 355.194 403.306 357.507 406.566 357.657C409.68 357.801 412.775 355.902 416.011 352.95C417.091 352.006 417.808 351.496 418.482 351.229C419.083 350.99 419.786 350.892 420.916 351.099C422.107 351.317 423.69 351.857 425.988 352.861C428.269 353.857 431.142 355.259 434.893 357.134C435.685 357.534 436.454 357.924 437.203 358.302C442.908 361.189 447.377 363.45 451.03 364.967C455.158 366.681 458.547 367.582 461.771 367.231C465.053 366.873 467.838 365.257 470.841 362.686C473.557 360.361 476.644 357.081 480.575 352.903C480.939 352.516 481.311 352.121 481.69 351.718C500.247 332.053 508.068 319.849 508.068 307.847C508.068 306.056 508.963 302.765 510.653 298.764C512.307 294.848 514.607 290.521 517.167 286.748L517.176 286.734L517.185 286.721C519.855 282.646 522.527 278.146 524.643 274.126C526.699 270.22 528.349 266.547 528.848 264.143C529.306 262.496 530.93 259.816 533.453 256.713C535.942 253.651 539.116 250.41 542.348 247.717L541.12 246.242L542.348 247.716C545.751 244.88 548.891 241.815 551.199 239.11C552.351 237.761 553.328 236.463 554.03 235.298C554.676 234.226 555.289 232.95 555.289 231.736C555.289 230.44 554.857 228.573 554.251 226.538C553.623 224.429 552.734 221.909 551.68 219.204C549.575 213.801 546.772 207.561 543.96 202.216C543.679 201.634 543.596 200.275 544.63 197.64C545.625 195.104 547.472 191.846 550.213 187.871L550.215 187.869C553.291 183.395 555.301 179.87 556.263 176.986C557.244 174.043 557.213 171.493 555.821 169.292C554.602 167.286 553.283 165.58 551.672 164.548C549.92 163.426 547.989 163.204 545.918 163.856C543.98 164.465 541.952 165.825 539.732 167.738C537.485 169.672 534.889 172.309 531.819 175.659C530.21 177.401 528.511 179.25 526.808 181.103C521.414 186.971 515.98 192.884 513.265 195.599L513.236 195.628L513.209 195.657L508.082 201.211L499.265 190.726L499.256 190.715L499.246 190.704C495.607 186.505 492.559 183.504 489.953 181.691C487.4 179.915 484.799 178.958 482.329 179.856C480.537 180.508 479.013 181.498 477.982 182.99C476.945 184.49 476.556 186.279 476.639 188.243C476.799 192.036 478.742 196.972 482.077 203.226C483.561 206.059 484.911 209.166 485.886 211.889C486.895 214.707 487.401 216.842 487.401 217.847C487.401 219.505 487.804 221.586 488.383 223.579C488.97 225.594 489.783 227.678 490.701 229.36C491.857 231.479 491.528 235.23 488.872 240.406C486.294 245.429 481.8 251.227 475.798 256.956L475.795 256.958C474.114 258.569 472.912 259.685 471.926 260.433C470.944 261.177 470.371 261.401 469.968 261.455C469.6 261.504 469.108 261.449 468.201 261.013C467.257 260.56 466.092 259.811 464.399 258.683L464.386 258.673L464.372 258.664C462.657 257.562 458.927 254.129 454.209 249.236C449.557 244.412 444.106 238.341 439.002 232.132L438.992 232.12L438.982 232.109C433.522 225.669 427.57 219.366 422.2 214.277C416.904 209.257 412.001 205.251 408.652 203.57C406.446 202.398 404.751 201.456 403.492 200.672C402.55 200.085 401.942 199.64 401.569 199.31C401.688 199.236 401.835 199.15 402.016 199.052L402.028 199.046L402.039 199.04C402.961 198.527 403.836 197.702 404.62 196.789C405.425 195.853 406.227 194.715 406.982 193.463C408.487 190.967 409.877 187.898 410.762 184.807C414.319 173.325 420.337 160.751 424.942 153.697C425.682 152.657 426.31 151.578 426.636 150.405C426.982 149.162 426.96 147.917 426.552 146.621C425.8 144.234 423.717 141.694 420.568 138.407L420.553 138.392L420.538 138.377C418.612 136.451 416.849 133.977 415.575 131.592C414.262 129.134 413.623 127.062 413.623 125.902C413.623 123.816 412.901 120.928 411.874 117.881C410.824 114.767 409.378 111.266 407.773 107.862C406.168 104.458 404.387 101.116 402.66 98.326C400.968 95.5937 399.214 93.2033 397.634 91.8725L397.573 91.8212L397.508 91.7749C396.965 91.3873 396.105 90.2541 395.183 88.4107C394.313 86.6706 393.53 84.5872 393.007 82.636C391.694 77.1046 387.478 73.1005 381.3 70.453L381.269 70.4396L381.237 70.4273C378.746 69.4586 376.333 68.493 374.444 67.703C373.498 67.3075 372.695 66.9607 372.084 66.6823C371.778 66.5429 371.531 66.4255 371.344 66.3313C371.154 66.2354 371.076 66.1884 371.067 66.1832L371.066 66.1827L370.843 66.0341L370.589 65.9494C369.989 65.7492 369.348 65.7598 368.87 65.8027C368.339 65.8505 367.759 65.964 367.168 66.1271C365.986 66.4532 364.626 67.0145 363.341 67.8175C363.016 68.021 362.27 68.3414 361.041 68.7311C359.861 69.1051 358.379 69.4997 356.692 69.8917C353.322 70.6746 349.219 71.4274 345.248 71.9754C334.022 73.416 327.016 76.6367 318.146 83.79Z" fill="black" stroke="white" stroke-width="4"/>
<path xmlns="http://www.w3.org/2000/svg" fill-rule="evenodd" clip-rule="evenodd" d="M286.623 278.124C288.29 278.124 289.401 284.79 289.401 293.124C289.401 301.457 290.79 309.235 292.457 310.346C294.679 311.457 294.679 312.846 292.457 315.068C285.79 321.735 282.457 311.179 281.068 278.679C280.235 260.902 280.235 244.79 281.068 243.402C281.901 241.735 282.735 248.957 283.29 259.235C283.846 269.79 285.235 278.124 286.623 278.124Z" fill="white"/>
<path xmlns="http://www.w3.org/2000/svg" fill-rule="evenodd" clip-rule="evenodd" d="M518.568 247.846C522.179 251.457 522.734 253.123 520.234 253.123C518.012 253.123 517.179 254.79 518.29 257.568C519.123 260.068 518.29 264.234 516.345 267.012C513.29 271.457 512.179 271.179 502.457 262.846C491.901 253.679 491.901 253.401 496.623 246.457C501.901 238.123 508.845 238.679 518.568 247.846Z" fill="white"/>
<path xmlns="http://www.w3.org/2000/svg" fill-rule="evenodd" clip-rule="evenodd" d="M393.846 206.18C404.957 210.346 411.623 215.346 419.401 224.791C424.957 231.735 436.901 245.346 445.79 255.068C454.401 264.513 461.623 273.402 461.623 274.513C461.346 275.902 459.679 279.791 457.457 283.68C450.79 295.346 452.734 299.791 460.512 290.624C464.123 285.902 468.568 280.902 470.234 279.513C471.901 277.846 476.068 273.958 479.401 270.346C483.012 267.013 487.457 264.235 489.401 264.235C494.123 264.235 508.846 275.068 508.846 278.679C508.846 280.624 507.734 280.624 505.234 278.402C499.401 273.958 497.734 277.569 497.734 293.68C497.734 314.791 489.123 331.18 472.179 342.013C461.068 349.235 459.123 351.735 461.901 354.791C464.679 358.402 464.123 358.402 457.457 355.902C453.29 354.235 446.346 350.624 442.179 347.569C437.734 344.513 432.457 342.013 429.957 342.013C427.734 342.013 420.512 335.346 414.401 327.013C407.457 317.846 399.401 310.624 394.401 308.958C383.568 305.068 380.512 307.569 388.568 313.68C391.623 316.179 396.346 322.291 398.568 327.013C401.068 331.735 404.957 337.013 407.179 338.958C409.679 340.902 410.79 343.68 409.957 345.069C407.457 349.235 403.29 347.846 403.29 343.124C403.29 339.791 401.623 338.958 396.623 340.346C392.734 341.179 388.846 340.902 388.012 339.235C385.512 335.069 375.512 335.902 375.512 340.346C375.512 346.458 366.901 348.124 362.734 342.846C359.401 338.402 358.568 338.402 356.346 342.013C354.123 345.346 352.457 345.069 346.346 339.235L339.123 332.569L337.457 338.68C335.512 346.458 329.679 346.458 322.734 338.402C319.679 334.791 312.734 330.068 307.457 328.124C302.179 325.902 297.734 322.291 297.457 320.069C297.457 317.568 297.179 310.069 296.623 303.124C296.346 296.18 295.79 282.846 295.512 273.124C295.234 261.458 293.846 255.902 291.346 255.902C289.123 255.902 288.29 252.013 288.846 242.568C289.679 232.569 291.901 227.568 298.568 220.346C307.734 210.902 316.623 207.568 342.179 204.513C350.512 203.402 359.401 201.457 361.623 200.068C366.623 197.291 373.012 198.402 393.846 206.18Z" fill="white"/>
<path xmlns="http://www.w3.org/2000/svg" fill-rule="evenodd" clip-rule="evenodd" d="M489.401 192.289C489.401 193.678 488.29 194.79 486.623 194.79C485.234 194.79 483.846 192.845 483.846 190.345C483.846 188.123 485.234 187.012 486.623 187.845C488.29 188.678 489.401 190.623 489.401 192.289Z" fill="white"/>
<path xmlns="http://www.w3.org/2000/svg" fill-rule="evenodd" clip-rule="evenodd" d="M326.624 182.567C328.846 183.401 329.957 185.901 329.124 188.401C327.735 192.012 329.124 192.568 337.179 191.179C347.457 189.512 358.29 193.401 350.512 195.901C348.29 196.456 339.679 197.845 331.624 198.956C308.012 201.734 297.179 207.29 285.512 222.845C279.679 230.623 274.401 236.179 273.29 235.345C271.346 233.123 283.29 207.012 291.624 195.345C299.679 184.79 316.346 178.679 326.624 182.567Z" fill="white"/>
<path xmlns="http://www.w3.org/2000/svg" fill-rule="evenodd" clip-rule="evenodd" d="M543.012 180.07C544.123 180.903 542.179 185.903 539.123 191.181C534.679 198.125 534.123 201.459 536.346 204.237C538.012 206.181 538.846 210.07 537.735 212.57C536.623 215.348 537.457 217.014 540.234 217.014C542.457 217.014 544.957 220.625 546.068 225.903C547.457 233.403 546.623 235.903 540.234 241.181C530.512 248.959 526.623 249.237 522.735 242.014C521.068 239.237 515.512 235.903 510.235 234.792C504.957 233.959 499.679 232.014 498.846 230.625C496.624 226.737 489.679 198.959 490.79 197.848C491.346 197.292 495.235 199.514 499.401 202.848C508.29 209.792 512.735 207.848 527.457 190.625C538.012 177.848 539.679 176.737 543.012 180.07Z" fill="white"/>
<path xmlns="http://www.w3.org/2000/svg" fill-rule="evenodd" clip-rule="evenodd" d="M550.512 172.568C550.512 173.957 549.401 175.346 547.734 175.346C546.346 175.346 544.957 173.957 544.957 172.568C544.957 170.901 546.346 169.79 547.734 169.79C549.401 169.79 550.512 170.901 550.512 172.568Z" fill="white"/>
<path xmlns="http://www.w3.org/2000/svg" fill-rule="evenodd" clip-rule="evenodd" d="M347.457 178.403C377.457 189.792 378.568 193.125 348.846 183.403C335.79 178.958 321.623 175.347 317.179 175.347C312.457 175.347 308.846 173.958 308.846 172.569C308.846 167.292 324.957 169.792 347.457 178.403Z" fill="white"/>
<path xmlns="http://www.w3.org/2000/svg" fill-rule="evenodd" clip-rule="evenodd" d="M342.179 157.012C342.179 158.679 340.234 157.568 338.012 154.79C335.79 151.735 333.846 147.846 333.846 146.457C333.846 144.79 335.79 145.901 338.012 148.679C340.234 151.735 342.179 155.624 342.179 157.012Z" fill="white"/>
<path xmlns="http://www.w3.org/2000/svg" fill-rule="evenodd" clip-rule="evenodd" d="M356.068 136.456C356.068 137.845 354.679 139.234 353.012 139.234C351.624 139.234 351.068 137.845 351.901 136.456C352.735 134.79 354.124 133.679 354.957 133.679C355.512 133.679 356.068 134.79 356.068 136.456Z" fill="white"/>
<path xmlns="http://www.w3.org/2000/svg" fill-rule="evenodd" clip-rule="evenodd" d="M404.679 125.347C403.845 126.736 401.345 128.124 399.679 128.124C397.734 128.124 398.012 127.013 400.512 125.347C405.79 122.013 406.901 122.013 404.679 125.347Z" fill="white"/>
<path xmlns="http://www.w3.org/2000/svg" fill-rule="evenodd" clip-rule="evenodd" d="M329.679 105.902C330.512 107.291 335.512 108.124 340.512 107.569C345.234 106.735 351.346 107.569 353.568 108.958C356.346 111.18 356.068 111.458 351.346 110.069C346.346 108.68 343.846 110.346 338.012 119.513C334.123 125.624 331.068 133.68 331.068 137.569C331.068 141.18 329.123 144.791 326.901 145.624C321.901 147.569 319.401 143.957 321.623 138.124C324.123 131.457 318.012 132.846 313.29 139.791C309.401 145.069 308.846 145.346 308.846 141.18C308.846 137.846 307.457 136.735 305.512 138.124C302.734 139.791 302.734 139.235 305.512 136.18C309.957 131.18 309.679 128.124 304.679 128.124C302.457 128.124 300.512 126.735 300.512 125.346C300.512 123.68 302.457 121.735 304.679 120.902C306.901 119.791 308.846 117.569 308.846 115.346C308.846 113.402 312.179 110.069 316.623 107.846C326.068 102.569 327.457 102.569 329.679 105.902Z" fill="white"/>
<path xmlns="http://www.w3.org/2000/svg" fill-rule="evenodd" clip-rule="evenodd" d="M386.623 89.2336C386.623 92.0114 388.568 94.7892 390.79 95.9003C393.012 96.7336 397.179 102.011 399.679 107.289C403.846 115.9 403.846 117.567 400.512 119.789C394.957 123.4 394.401 135.623 399.679 137.567C401.901 138.4 404.679 138.678 405.79 137.845C407.179 137.289 411.068 139.789 414.679 143.678L421.068 150.623L413.568 157.845C409.679 162.011 405.512 164.789 404.957 163.956C402.734 161.734 406.346 150.345 409.401 150.345C410.79 150.345 411.068 151.456 410.234 153.123C409.401 154.511 409.957 155.9 411.346 155.9C415.79 155.9 414.957 151.456 409.679 145.9C404.957 141.178 404.679 141.178 403.568 146.456C403.012 149.234 400.79 154.234 398.846 157.289C393.568 164.789 394.123 171.734 400.234 175.345C406.901 178.956 404.957 188.678 396.346 192.567C391.623 194.789 387.457 193.4 373.846 184.511C364.957 178.678 353.846 172.011 349.123 169.789L340.79 165.9L349.957 164.789C356.901 164.234 358.846 162.567 358.846 158.123C358.846 154.789 358.012 153.123 357.179 153.956C354.123 157.011 344.679 150.345 341.901 142.845C339.957 137.845 340.234 134.511 342.179 132.567C344.123 130.623 344.957 130.9 344.957 133.123C344.957 143.123 349.679 150.345 355.79 150.345C359.679 150.345 361.346 147.845 362.457 139.789C363.012 134.234 362.734 128.123 361.901 126.734C360.79 125.067 360.79 119.511 361.901 114.234C363.29 107.011 363.846 106.178 364.123 111.178C364.401 117.845 376.901 133.678 381.623 133.678C385.512 133.678 384.123 117.289 379.679 108.678C376.623 102.567 373.29 100.345 367.734 100.345C355.79 100.345 339.401 97.0114 339.401 94.7892C339.401 93.6781 347.734 92.0114 357.734 91.4559C371.346 90.6225 376.623 88.9559 378.846 85.6225C381.901 79.7892 386.623 82.0114 386.623 89.2336Z" fill="white"/>
<path xmlns="http://www.w3.org/2000/svg" fill-rule="evenodd" clip-rule="evenodd" d="M333.846 83.6782C333.846 85.0671 332.457 86.4559 330.79 86.4559C329.401 86.4559 328.846 85.0671 329.679 83.6782C330.512 82.0115 331.901 80.9004 332.735 80.9004C333.29 80.9004 333.846 82.0115 333.846 83.6782Z" fill="white"/>
<path xmlns="http://www.w3.org/2000/svg" fill-rule="evenodd" clip-rule="evenodd" d="M371.068 83.4035C367.457 87.0145 366.346 87.0145 365.234 84.2368C364.123 81.459 362.734 81.7368 358.568 85.3479C355.79 87.8479 353.29 88.959 353.29 87.5701C353.29 82.5701 359.123 78.959 367.457 78.959C375.234 78.959 375.512 79.5146 371.068 83.4035Z" fill="white"/>
<path xmlns="http://www.w3.org/2000/svg" fill-rule="evenodd" clip-rule="evenodd" d="M353.29 79.2342C353.29 80.0675 352.179 81.4564 350.512 82.2897C349.123 83.1231 347.734 82.5675 347.734 81.1786C347.734 79.5119 349.123 78.123 350.512 78.123C352.179 78.123 353.29 78.6786 353.29 79.2342Z" fill="white"/>
<path xmlns="http://www.w3.org/2000/svg" fill-rule="evenodd" clip-rule="evenodd" d="M436.068 296.46C434.401 297.849 438.012 316.46 440.235 318.682C441.901 320.627 444.957 299.793 443.29 297.016C441.624 294.516 438.29 293.96 436.068 296.46Z" fill="black"/>
<path xmlns="http://www.w3.org/2000/svg" fill-rule="evenodd" clip-rule="evenodd" d="M321.068 296.737C320.234 301.181 318.846 306.181 318.29 308.404C316.346 314.793 320.512 331.181 323.846 330.07C325.512 329.515 326.901 321.181 327.179 309.237C327.179 288.959 324.123 282.848 321.068 296.737Z" fill="black"/>
<path xmlns="http://www.w3.org/2000/svg" fill-rule="evenodd" clip-rule="evenodd" d="M404.401 251.737C399.401 255.626 399.401 255.626 405.512 255.903C411.624 255.903 411.901 256.459 409.957 267.57C405.235 293.403 409.401 305.626 419.957 296.181C425.235 291.181 425.512 291.181 425.512 297.014C425.512 304.792 430.235 305.07 432.457 297.57C434.957 290.07 429.124 283.126 422.179 285.348C417.735 286.737 417.179 285.903 418.846 278.959C421.901 267.292 421.346 256.737 417.179 252.015C412.735 246.459 411.346 246.459 404.401 251.737Z" fill="black"/>
<path xmlns="http://www.w3.org/2000/svg" fill-rule="evenodd" clip-rule="evenodd" d="M377.179 254.793C374.957 271.459 374.957 287.848 377.179 290.07C378.29 290.904 381.346 290.626 383.846 289.237C387.179 287.293 388.846 287.57 388.568 290.07C388.29 298.404 389.679 303.126 392.179 303.126C393.846 303.126 394.957 297.57 394.957 290.626C394.957 277.293 388.568 270.626 383.568 278.404C381.901 280.904 381.623 274.515 382.734 262.015C384.957 239.515 380.234 233.404 377.179 254.793Z" fill="black"/>
<path xmlns="http://www.w3.org/2000/svg" fill-rule="evenodd" clip-rule="evenodd" d="M358.846 237.013C351.346 249.235 349.124 267.568 353.568 275.624L357.457 282.291L358.29 273.957C359.679 259.513 364.679 236.735 366.624 235.346C367.735 234.791 368.29 239.235 367.735 245.346C366.068 262.568 371.901 264.791 374.124 247.568C375.512 236.457 375.235 232.291 372.457 230.624C366.346 226.735 364.679 227.568 358.846 237.013Z" fill="black"/>
</svg>