<svg version="1.2" xmlns="http://www.w3.org/2000/svg" viewBox="0 0 141 151" width="141" height="151">
	<style>
		.s0 { fill: #000000 } 
		.s1 { fill: #00a650 } 
		.s2 { fill: #f47216 } 
	</style>
	<g>
		<g>
			<path class="s0" d="m19.4 88.3c-1.1-1.8-0.9-3.4-0.3-5.1 1.4-3.7 4.2-6.2 7.3-8.3 0.4-0.2 0.7-0.5 0.9-0.6-2.1-1.5-4.5-2.8-6.5-4.6-5.1-4.6-7.9-10.6-9.8-17-1.8-5.9-2.4-12.1-2.4-18.2 0-7.7-1.7-15.1-5.3-21.9-1.1-2-2.4-3.9-3.7-5.9 1.4-1.3 3.2-1.5 5-1.5 5.7-0.1 10.9 1.6 15.8 4.4 5.1 3 9.2 7 12.6 11.7 0.2 0.3 0.5 0.6 0.8 1 2.3-7.3-1.5-12.6-5.3-18 2-1.2 4.1-0.9 6.1-0.6 7.6 1.1 13.7 5 18.7 10.6 1.9 2.1 3.4 4.5 5 6.8 0.3 0.3 0.5 0.7 0.5 0.8 4.3-7.2 8.5-14.4 13-22 4.8 6.1 7.8 12.6 10.8 18.9 2.4-2.7 4.8-5.5 7.4-8 3.8-3.6 8.2-6.3 13.2-7.7 2.7-0.7 4.2-0.7 7 0.3-3.4 6.1-4.8 12.5-3.1 19.3 1.4-1.9 2.7-4 4.3-5.8 5.3-6.2 11.7-10.4 19.9-11.7 2.4-0.4 4.9-0.6 7.2 0.1 0.7 0.2 1.4 0.6 2.3 1-0.4 0.5-0.7 0.8-1 1.1-4.4 5-7.3 10.6-7.5 17.4-0.1 3.8 0.2 7.6 0.5 11.4 0.6 8-0.1 15.7-3.5 23.1-2.4 5.3-5.8 9.9-10.1 13.9-0.1 0.1-0.3 0.3-0.4 0.4-0.1 0.1-0.1 0.1-0.1 0.2 4.2 3.8 8 7.7 6 14.3-0.8-0.5-1.4-0.9-2-1.3-1.6-1.1-3.3-1.3-5.1-0.7-2.9 0.8-5.3 2.5-7.5 4.4-3 2.7-6.4 4.5-10.4 5.2-3.8 0.7-7.6 0.5-11.3-1-0.4-0.2-0.9-0.2-1.3-0.1-6.3 1.4-10.8 7-10.7 13 0.1 6.8-0.3 13.6-2.1 20.2-0.7 2.4-1.7 4.6-2.6 6.9q2.7-0.3 5.7-0.6c0.6-0.1 1.2-0.2 1.8 0 1 0.2 1.3 1 1.1 2-0.2 1.1-1.1 2-1.9 2-2.7-0.1-5.4-0.2-8.1-0.1-1.7 0-1.9-1.4-2.6-2.3-0.7-0.8 0-1.3 0.4-1.9 2-2.9 2.9-6.2 3.3-9.7 0.6-4.9 0.9-9.8 1.2-14.7 0.1-1.5-0.4-2-2.1-2.3 0 0.5-0.1 1-0.1 1.5 0 5.4 0 10.7-1.1 16-0.9 4.1-2.2 7.9-5.3 10.9-3.2 3.1-7.2 4.1-11.5 4-2.1-0.1-4.3-0.3-6.4-0.8-2.1-0.5-2.4-2.2-0.8-3.7 1.6-1.6 3.6-1.9 5.8-1.8 2.9 0.2 5.9 0.5 8.8 0.8 1 0.1 1.5-0.3 2-1.1 3.2-4.7 4.7-10 5.2-15.6 0.3-4.4 0.1-8.8-1.6-13-1.2-2.9-3-5.2-5.8-6.8-1.9-1.1-3.7-2.3-5.6-3.4-0.3-0.2-0.8-0.3-1-0.2-4 1.9-8 1.4-12 0.3-2.8-0.8-5.2-2.2-7.5-3.9-2.5-1.8-5.2-3.2-8.2-3.7-2.1-0.1-4 0.4-6 1.7zm37.5 47.4c-1.1 0.1-2.2 0.3-3.2 0.4-1.5 0.1-2.7-0.5-4.2 0-0.2 0.1-0.9 0.3-0.9 0.6 0 0.2 0.2 0.4 0.8 0.6 1.3 0.4 2.2 0.1 5.4 0 1.1 0 1.8-0.5 2.1-1.6z"/>
			<path class="s0" d="m55.1 145c-0.8-0.1-1.9-0.3-3-0.5-1.4-0.2-2.8-0.5-4.1-0.8-0.4-0.1-0.9-0.4-0.9-0.7 0-0.3 0.3-0.8 0.6-1 1.4-0.8 2.9-1 4.4-0.5 2.1 0.8 4.1 0.5 6.1-0.2 1.1-0.3 2.2-0.6 3.2-0.8 0.3-0.1 0.7-0.1 1.1-0.1 0.9 0.1 1.8 0.4 2 1.4 0.2 1-0.5 1.5-1.3 1.9-0.5 0.3-1 0.5-1.6 0.5-2 0.4-4.1 0.6-6.5 0.8z"/>
			<path class="s0" d="m83.7 148.6c-1.7-0.2-3.4-0.4-5.1-0.7-0.4-0.1-1.1-0.6-1.1-0.9 0-0.4 0.4-1.1 0.8-1.3 0.9-0.4 1.9-0.8 2.8-0.9 2.6-0.2 5.2-0.3 7.9-0.3 0.6 0 1.3 0.1 1.8 0.4 0.4 0.2 0.9 0.8 1 1.2 0 0.4-0.5 1.1-0.9 1.2-1.2 0.4-2.1 0.8-4.3 1-0.5 0.1-1.5 0.2-2.9 0.3z"/>
			<path class="s0" d="m74.1 139.7q1.8 0 3.6 0c1 0 1.9 0.3 2.1 1.4 0.2 1-0.7 1.5-1.5 1.7-3.1 1-6.3 1.1-9.4 0.2-1.5-0.4-1.7-1.6-0.4-2.6 0.6-0.4 1.4-0.7 2.1-0.8 1.1 0.1 2.3 0.1 3.5 0.1z"/>
			<path class="s0" d="m52.5 146.5c1.9-0.4 3.3-0.2 4.1 0.1 0.6 0.2 1.7 0.5 1.8 1.1 0.1 0.7-1.1 1.4-1.5 1.6-0.7 0.4-1.6 1.3-6.8 0.6-1-0.1-2-0.4-3-0.8-0.4-0.2-0.8-0.7-0.8-1.2 0-0.5 0.6-0.8 0.9-1 1.6-0.8 4.2-0.6 5.3-0.4z"/>
			<path class="s0" d="m88.5 137.3c-0.9 0-1.8 0-2.8 0-0.5 0-1.1 0-1.5-0.3-0.5-0.3-1.3-0.8-1.3-1.3 0-0.5 0.6-1.2 1.1-1.5 2.5-1.1 5.2-1.2 7.9-0.4 0.3 0.1 0.7 0.2 0.8 0.5 0.3 0.6 0.8 1.3 0.7 1.8-0.1 0.5-0.9 1-1.5 1.1-1 0.2-2.2 0.1-3.4 0.1z"/>
			<path class="s0" d="m89.9 142.2c-1.7-0.1-3.4-0.1-5.1-0.3-1.2-0.1-1.5-0.9-0.6-1.8 0.5-0.5 1.3-1.1 2-1.1q3.9-0.15 7.8 0c1.3 0 2 0.8 1.9 1.7 0 0.3-0.1 0.6-0.3 0.8-0.4 0.5-1.2 0.6-1.8 0.6-1.2 0.1-2.5 0.1-3.9 0.1z"/>
			<path class="s0" d="m69.8 148.6c-1.6-0.2-2.9-0.3-4.1-0.6-0.5-0.1-1.1-0.8-1.1-1.1 0-0.5 0.6-1.3 1-1.3 2.4-0.3 4.8-1.7 7.4-0.6 0.5 0.2 1.2 0.1 1.7 0.3 0.5 0.2 1 0.7 1.1 1.2 0.1 0.2-0.5 1-0.9 1.1-1.7 0.4-3.5 0.7-5.1 1z"/>
			<path class="s1" d="m24.1 82.9c0.1 0.1 0.2 0.2 0.4 0.3 0.6-0.1 1.2-0.2 1.8-0.2 3.4-0.1 5.5 1.7 9.2 3.6 1.5 0.8 3.9 2 7.1 2.8 1.8 0.5 7.2 1.9 8.5 0 0.5-0.7-0.1-1.1 0.3-3.5 0.3-2 0.9-3.5 1-3.8 0.4-0.8 1-2 2.1-3.2-0.2-0.1-0.5-0.2-0.7-0.3-2.7-1.1-5.4-2.2-8.2-3.3-0.6-0.2-1.3-0.3-1.9-0.1-3.4 1.1-6.8 1.6-10.4 0.6-0.5-0.1-1.2-0.1-1.6 0.2-1.7 1.1-3.4 2.2-4.9 3.5-1.1 0.9-1.8 2.3-2.7 3.4z"/>
			<path class="s1" d="m70 99.2c1 0.5 2.4 1 3.8 0.5 1.7-0.7 1.5-2.3 3.5-4.5 0.7-0.7 2-2.1 5.4-3.5 1.2-0.5 2.3-1.1 3.3-2 2.9-2.6 3-7.2 0.3-9.7-0.6-0.6-1.2-0.7-2-0.4-7.9 2.9-15.9 2.7-23.8 0.1-1.3-0.4-2-0.1-2.8 0.9-2 2.6-2 6.8 0.1 9.2 1.1 1.3 2.7 2.1 4 3.2 1.9 1.7 3.2 1.4 4.9 2.7 1.6 1.2 2.7 2.6 3.3 3.5z"/>
			<path class="s1" d="m90.6 80.3c0.6 0.9 1 1.8 1.3 2.7 0.1 0.5 0.5 2 0.2 4-0.3 2-1 2.2-0.8 2.9 0.5 1.8 5.4 2.6 9.5 1.5 2.2-0.6 3.8-1.7 6.7-3.6 2.8-1.9 3-2.5 4.8-3.4 1.7-0.9 4.2-1.8 7.9-1.9-0.3-0.8-0.7-1.9-1.5-2.9-0.5-0.6-1.1-1.1-1.7-1.6-1.1-0.8-2.3-1-3.7-0.6-1.5 0.5-3.2 0.8-4.7 1.3-3.6 1-7.2 1.2-10.9 0.3-2.7-0.6-4.9 0.2-7.1 1.3z"/>
			<path class="s2" d="m72.2 8.7c7.5 11.2 13.4 23 16.2 36.1 1.3 6 2 12.1 0.7 18.3-1.2 5.1-3.7 9.5-7.8 12.7-6 4.6-14.4 4.1-20.2-1.2-5.3-4.8-7.7-10.9-7.8-17.9-0.1-6.9 1.7-13.5 4.1-19.9 3.6-9.8 8.8-18.9 14.6-27.6-0.1-0.2 0-0.3 0.2-0.5zm-39 48.4c-1.7-5.5-2.5-11.2-2.5-17 0-4.2 0.9-8.5 1.3-12.7 0.1-0.5-0.1-1.2-0.4-1.5-2.5-2.8-4.8-5.7-7.5-8.2-5.1-4.6-11-7.4-17.7-7.6 1.3 2.9 2.9 5.7 3.9 8.8 2.6 7.4 3.1 15.1 3.1 22.9 0 4 0.7 7.8 2.2 11.4 2.5 6.2 6.1 11.7 11.7 15.6 4 2.8 8.5 3.6 13.6 2.1-3.8-4.1-6.1-8.8-7.7-13.8zm68.9 17.3c1.8 0.1 3.7 0.5 5.5 0.4 3.9-0.2 7.2-2.1 9.9-4.9 7.4-7.5 11.3-16.6 11-27.2-0.1-5.6-0.6-11.2-0.7-16.7-0.1-4.8 1.4-9.3 4-13.3 0.7-1.1 1.6-2.2 2.5-3.4-3.2 0.1-6.1 0.8-8.9 2.1-7.5 3.6-12.6 9.6-16.2 17-0.2 0.3-0.2 0.8-0.1 1.1 1.2 4.9 2.2 9.9 2.6 14.9 0.4 6 0.1 11.8-1.9 17.5-1.6 4.6-4.1 8.6-7.8 11.9 0.1 0.3 0.1 0.4 0.1 0.6zm-13.4 2.6c9.4-1.8 17.1-9.7 18.8-19.4 1.1-6.5 0.5-13-0.7-19.4-0.9-4.6-2.2-9.1-3.3-13.7-0.9-3.8-1.4-7.6-0.4-11.4 0.4-1.5 0.9-2.9 1.5-4.7-1.6 0.4-3.1 0.7-4.5 1.3-6.5 2.5-10.9 7.3-14.4 13.2-0.2 0.3-0.2 0.9 0 1.3 4.4 8.3 7.5 17.1 8.2 26.6 0.3 3.4 0.4 7-0.1 10.4-0.7 5-3.1 9.4-5.6 13.6-0.5 0.8-0.9 1.5-1.6 2.6 1-0.3 1.5-0.3 2.1-0.4zm-50.7-63.3c1.2 4 0.9 8.2-0.1 12.2-1.6 5.7-2.4 11.5-2.3 17.5 0.1 6.4 1.4 12.5 4.3 18.2 2.8 5.4 6.6 9.8 12.1 12.5 1.2 0.6 2.5 1 3.9 1.6-1.1-1.8-2.1-3.2-2.9-4.8-4-8.1-4.8-16.6-3.2-25.5 1.1-5.9 3.2-11.5 5.5-17.1 0.2-0.5 0.3-1.4 0-1.9-2.8-4.9-6.1-9.4-10.3-13.2-2.8-2.6-5.9-4.6-9.5-5.5 0.9 2.1 1.9 4 2.5 6z"/>
		</g>
	</g>
</svg>