<?xml version="1.0" encoding="utf-8"?>
<!-- Generator: Adobe Illustrator 15.0.2, SVG Export Plug-In . SVG Version: 6.00 Build 0)  -->
<!DOCTYPE svg PUBLIC "-//W3C//DTD SVG 1.1//EN" "http://www.w3.org/Graphics/SVG/1.1/DTD/svg11.dtd">
<svg version="1.1" id="Ebene_1" xmlns="http://www.w3.org/2000/svg" xmlns:xlink="http://www.w3.org/1999/xlink" x="0px" y="0px"
	 width="407.979px" height="263.986px" viewBox="0 0 407.979 263.986" enable-background="new 0 0 407.979 263.986"
	 xml:space="preserve">
<g>
	<path fill-rule="evenodd" clip-rule="evenodd" d="M197.926,90.614c3.609,0.188,2.414,2.232,2.891,5.303c-0.803,0-1.605,0-2.41,0
		C197.83,94.565,197.877,92.591,197.926,90.614z"/>
	<path fill-rule="evenodd" clip-rule="evenodd" d="M183.467,92.06c2.326-0.076,1.848,2.654,3.373,3.375
		c-1.674,3.475,2.443,10.252,0.965,14.947c-3.928-2.197-1.957-8.742-4.338-11.572C184.051,96.097,182.191,93.933,183.467,92.06z"/>
	<path fill-rule="evenodd" clip-rule="evenodd" d="M371.91,92.542c0.781,1.555,0.227,2.611,0,4.34
		c-9.949,3.828-19.535,9.457-29.4,14.465c-4.561,2.314-7.275,6.445-13.494,5.785c-0.953-3.363,1.938-2.883,2.408-4.822
		c10.006-3.008,16.453-9.576,26.025-13.018c0.705-0.418,1.527-0.721,1.445-1.928C364.588,97.114,365.316,91.896,371.91,92.542z"/>
	<path fill-rule="evenodd" clip-rule="evenodd" d="M116.959,182.22c0.396,1.365-0.68,1.252-0.482,2.412
		c-2.307,0.215-4.121-0.057-4.338-1.93C113.406,182.206,115.096,182.126,116.959,182.22z"/>
	<path fill-rule="evenodd" clip-rule="evenodd" d="M274.555,188.489c-3.512,5.998-10.746,7.748-16.867,10.605
		c-6.023,2.812-11.824,7.066-18.797,8.197c-1.07,1.461-5.723,3.289-6.748,0.484c2.695-6.305,13.805-4.191,16.869-10.125
		c4.945-1.785,11.957-3.141,16.387-6.27C267.555,189.858,270.885,184.845,274.555,188.489z"/>
	<path fill-rule="evenodd" clip-rule="evenodd" d="M284.676,188.489c2.18-0.092,4.572-0.396,3.855,2.412c-1.285,0-2.57,0-3.855,0
		C284.676,190.095,284.676,189.292,284.676,188.489z"/>
	<path fill-rule="evenodd" clip-rule="evenodd" d="M63.945,189.937c5.391,0.709,13.781-1.576,16.867,1.445
		c-4.305,1.641-10.812,1.074-15.904,1.93C64.555,191.706,62.906,191.745,63.945,189.937z"/>
	<path fill-rule="evenodd" clip-rule="evenodd" d="M125.152,190.901c0,0.801,0,1.605,0,2.41c-2.215,0.285-3.707-0.152-4.82-0.967
		C120.355,190.28,123.225,191.062,125.152,190.901z"/>
	<path fill-rule="evenodd" clip-rule="evenodd" d="M289.494,191.382c2.766-1.688,7.178,0.801,5.783,3.375
		c-2.438,0.348-2.355-1.824-4.82-1.445C290.35,192.456,290.945,190.894,289.494,191.382z"/>
	<path fill-rule="evenodd" clip-rule="evenodd" d="M131.898,192.345c1.465,0.305,4.152-0.615,4.82,0.482
		C136.656,194.64,131.502,194.112,131.898,192.345z"/>
	<path fill-rule="evenodd" clip-rule="evenodd" d="M96.717,193.792c1.445,0,2.891,0,4.338,0c0.902,2.188-1.916,0.656-1.447,2.41
		C99.533,194.511,95.994,196.282,96.717,193.792z"/>
	<path fill-rule="evenodd" clip-rule="evenodd" d="M295.762,196.202c1.891-0.447,1.215,1.676,3.371,0.965
		c-0.348,1.477,0.832,1.418,0.484,2.895c-0.969-0.164-1.51,0.098-1.449,0.965C296.34,200.038,294.723,198.8,295.762,196.202z"/>
	<path fill-rule="evenodd" clip-rule="evenodd" d="M335.279,196.202c0.398,1.363-0.68,1.25-0.48,2.412c-1.125,0-2.25,0-3.375,0
		C331.371,196.472,332.957,195.966,335.279,196.202z"/>
	<path fill-rule="evenodd" clip-rule="evenodd" d="M142.984,199.577c-1.285,0-2.572,0-3.855,0c0.061-0.863-0.592-1.016-0.482-1.926
		C139.965,196.8,144.047,196.522,142.984,199.577z"/>
	<path fill-rule="evenodd" clip-rule="evenodd" d="M97.199,199.095c0.061,0.867-0.592,1.02-0.482,1.932
		c-4.758-0.746-6.615,1.418-11.084,0.963c1.527-3.293,6.555-3.082,10.119-4.338C95.004,199.364,97.391,197.94,97.199,199.095z"/>
	<path fill-rule="evenodd" clip-rule="evenodd" d="M279.375,201.989c2.887-0.154,5.629-0.166,5.301,2.893
		c-3.188,0.41-2.588,0.762-5.301-0.48C279.375,203.595,279.375,202.792,279.375,201.989z"/>
	<path fill-rule="evenodd" clip-rule="evenodd" d="M312.629,202.47c0.152,1.135,0.76,1.811,0.48,3.375
		c-2.791,0.541-2.721-1.775-5.299-1.443C307.973,201.562,310.219,202.073,312.629,202.47z"/>
	<path fill-rule="evenodd" clip-rule="evenodd" d="M147.32,202.47c1.285,0,2.57,0,3.855,0c0.078,1.365-1.447,1.125-1.445,2.412
		c-1.162,0.199-1.047-0.879-2.41-0.48C147.32,203.757,147.32,203.114,147.32,202.47z"/>
	<path fill-rule="evenodd" clip-rule="evenodd" d="M94.307,204.882c0.389,2.801-4.607,1.129-5.783,0.963
		C88.402,203.78,93.168,204.087,94.307,204.882z"/>
	<path fill-rule="evenodd" clip-rule="evenodd" d="M304.436,206.327c1.924,0.484,3.889,0.936,5.783,1.449
		c-0.275,2.023-4.635,0.703-5.783,0.48C304.436,207.614,304.436,206.97,304.436,206.327z"/>
	<path fill-rule="evenodd" clip-rule="evenodd" d="M307.811,209.702c0.408-0.086,0.455,0.188,0.48,0.484
		c0.568,0.875,2.514,0.379,3.375,0.965c0,0.641,0,1.285,0,1.926c-1.135,0.156-1.811,0.762-3.375,0.484
		c0.762-1.887-1.252-1-1.447-1.93C306.25,210.073,308.406,211.265,307.811,209.702z"/>
	<path fill-rule="evenodd" clip-rule="evenodd" d="M168.525,212.114c-0.109,2.297-4.311,1.428-5.783,0.963
		C162.508,208.804,166.701,211.663,168.525,212.114z"/>
	<path fill-rule="evenodd" clip-rule="evenodd" d="M276.965,210.667c2.434-0.188,4.523-0.023,3.855,2.895
		c-1.391-0.059-3.156,0.262-3.855-0.484C276.965,212.276,276.965,211.47,276.965,210.667z"/>
	<path fill-rule="evenodd" clip-rule="evenodd" d="M240.336,214.526c-0.471,0.652-1.625,0.623-1.926,1.443
		c-1.123-0.326-2.025-0.867-1.93-2.408C238.436,213.058,239.371,213.089,240.336,214.526z"/>
	<path fill-rule="evenodd" clip-rule="evenodd" d="M249.977,215.007c0,0.805,0,1.607,0,2.41c-2.5-0.23-5.984,0.52-7.711-0.48
		c0-0.484,0-0.967,0-1.447C243.615,212.038,247.039,214.745,249.977,215.007z"/>
	<path fill-rule="evenodd" clip-rule="evenodd" d="M116.959,215.007c2.459-0.047,5.164-0.344,5.783,1.445
		c-0.582,3.129-3.629,1.41-5.783,0.965C116.959,216.614,116.959,215.812,116.959,215.007z"/>
	<path fill-rule="evenodd" clip-rule="evenodd" d="M132.863,216.452c0.012,2.703-5.666,2.539-6.266,0.484
		C126.586,214.233,132.264,214.399,132.863,216.452z"/>
	<path fill-rule="evenodd" clip-rule="evenodd" d="M253.348,215.007c1.285,0,2.572,0,3.859,0c0.152,1.133,0.758,1.809,0.48,3.375
		c-2.289,0.199-4.182,0.004-5.301-0.965C252.93,216.837,253.762,216.544,253.348,215.007z"/>
	<path fill-rule="evenodd" clip-rule="evenodd" d="M64.908,219.345c-2.238,0.656-3.744,2.039-7.23,1.447
		C58.67,218.771,63.654,215.335,64.908,219.345z"/>
	<path fill-rule="evenodd" clip-rule="evenodd" d="M116.477,221.757c-2.088,0-4.178,0-6.266,0c0-0.805,0-1.605,0-2.412
		C112.811,218.288,116.186,218.14,116.477,221.757z"/>
	<path fill-rule="evenodd" clip-rule="evenodd" d="M91.896,224.651c3.85,1.129,9.994-0.035,12.531,2.41
		C101.717,228.159,91.201,230.034,91.896,224.651z"/>
	<path fill-rule="evenodd" clip-rule="evenodd" d="M290.941,225.614c1.564-0.281,2.242,0.328,3.371,0.48
		c-0.309,1.459-1.324,2.213-3.371,1.932C290.941,227.22,290.941,226.417,290.941,225.614z"/>
	<path fill-rule="evenodd" clip-rule="evenodd" d="M286.121,226.095c0,0.807,0,1.607,0,2.412c-0.963,0-1.926,0-2.891,0
		C283.26,226.769,284.195,225.937,286.121,226.095z"/>
	<path fill-rule="evenodd" clip-rule="evenodd" d="M339.135,243.452c-2.73,0-5.461,0-8.191,0
		c-49.277-1.965-99.502-4.219-149.404-5.785c-49.977-1.566-99.873-2.906-148.439-6.266c0-0.807,0-1.609,0-2.412
		c42.08-1.061,87.658,2.951,133.498,3.855c58.016,1.148,111.916,3.264,165.309,5.787c3.936,0.188,9.621-0.051,8.191,3.857
		C340.094,243.124,339.254,242.929,339.135,243.452z"/>
	<path fill-rule="evenodd" clip-rule="evenodd" d="M81.777,34.202c1.445,0,2.891,0,4.336,0
		c28.883,33.787,57.57,70.336,86.27,102.697c-1.984-3.479-5.461-5.467-6.266-10.125c-2.277,0.562-1.684-2.426-2.41-3.375
		c-1.057-1.377-2.936-1.994-3.855-3.375c-3.098-4.652-7.84-9.211-8.193-14.465c3.131,0.564,4.186,3.205,4.818,6.268
		c0.723,0.082,1.779-0.172,1.93,0.482c1.312,3.67,3.695,6.268,6.264,8.68c1.811,3.975,3.943,7.627,7.229,10.125
		c0.426,2.146,1.021,4.123,3.375,4.338c-13.059-23.898-28.158-45.758-40.482-70.393c0.957-0.006,0.611-1.314,1.928-0.963
		c6.857,5.836,9.295,16.092,15.422,22.66c8.809,17.547,19.111,33.596,28.918,50.143c0.375-2.145-0.643-2.893-0.482-4.822
		c-2.369-1.006-2.455-4.295-4.338-5.785c0.387-1.672-0.719-1.854-0.482-3.375c-3.311-2.658-3.025-7.248-4.82-11.09
		c-1.877-4.016-7.117-7.529-5.783-12.535c4.496,0.969,3.561,7.367,6.746,9.643c0.379,3.643,2.873,5.164,2.895,9.162
		c1.336,0.107,1.361,1.529,2.41,1.928c0.6,3.898,3.082,5.916,3.373,10.125c2.914,1.744,2.174,7.146,6.264,7.715
		c-11.303-34.816-23.818-68.422-34.699-103.662c1.285,0,2.57,0,3.855,0c11.973,35.113,23.496,70.674,36.146,105.107
		c-0.129-9.021-5.424-18.975-3.855-27c3.297,5.453,4.762,15.83,5.301,25.072c2.525,0.855,0.838,8.473,3.373,7.713
		c-3.92-27.287-7.285-57.359-11.084-84.373c-0.455-3.225-2.586-8.75,0.963-11.09c3.686,1.592,2.48,6.74,2.893,10.125
		c2.271,18.717,5.277,39.832,7.711,58.82c0.717,5.59,0.328,11.6,2.893,14.465c-1.5-2.367,0.486-2.605,0-6.268
		c-0.211-6.438-3.484-19.967-0.965-27c2.404,2.258,1.906,6.918,1.445,9.643c2.09,8.564,0.477,15.18,2.893,22.66
		c0.914-32.031,1.016-64.875,0.963-97.875c1.285,0,2.57,0,3.857,0c0.797,30.516-0.973,68.76-0.482,104.625
		c3.465-15.477,3.074-33.006,6.266-47.73c1.621-0.336,1.578,0.99,2.408,1.445c-1.713,14.805-5.119,31.857-4.336,45.322
		c5.756-28.113,12.521-56.264,16.865-84.375c1.744-0.188,1.215-2.646,3.855-1.93c0.863,6.92-1.432,14.219-2.891,21.215
		c-4.246,20.383-9.109,42.975-13.494,64.125c6.33-12.473,9.318-28.283,13.979-42.428c0.846,0.277,2.828-0.584,2.891,0.48
		c-4.348,15.58-9.543,30.312-14.457,45.322c3.422-2.523,4.73-7.158,5.299-12.535c1.721,0.111,0.494-2.721,2.412-2.412
		c3.656-13.217,10.42-23.322,13.492-37.125c2.342-1.674,3.27-4.764,3.373-8.678c2.396-1.299,3.029-4.363,2.893-8.197
		c6.66-11.174,9.494-26.182,16.387-37.125c0.965,0,1.93,0,2.893,0c0,0.162,0,0.322,0,0.482c1.471,0.893-0.557,2.291,0,3.857
		c-11.701,27.166-23.779,57.906-34.701,84.857c-1.84,4.545-3.484,8.994-3.373,12.053c5.119-12.719,11.373-24.297,17.83-35.678
		c1.211-0.082,1.172,1.08,1.928,1.447c-5.885,10.984-11.285,22.457-17.35,33.268c5.43-4.08,7.918-10.803,11.566-16.393
		c7.436-11.389,14.555-22.961,21.688-34.232c3.631-5.734,6.887-12.021,12.051-16.393c3.336,3.215-1.348,7.246-2.891,9.643
		c-14.094,21.859-29,45.205-41.449,66.053c5.414-7.441,11.891-13.82,16.385-22.178c5.928-3.232,7.396-10.922,13.498-13.982
		c-0.148,0.949,0.648,0.955,0.963,1.445c-1.148,1.584-1.354,4.111-4.338,3.857c-0.465,3.715-4.018,4.34-4.34,8.197
		c-5.432,2.762-6.883,9.508-12.047,12.535c-0.48,4.662-5.309,4.977-5.783,9.643c14.166-12.184,25.338-27.363,39.037-40.018
		c2.816-5.701,9.27-7.762,11.566-13.982c10.645-8.637,18.281-20.281,28.918-28.928c-0.08-2.17,1.824-2.354,1.926-4.34
		c6.812-3.473,9.734-10.836,15.906-14.945c-0.029,1.793,2.332,1.203,1.928,3.375c-32.648,34.84-65.104,69.869-98.318,104.143
		c-0.061,1.334-0.918,1.654,0.48,0.963c5.57-6.32,13.465-10.314,18.314-17.355c7.219-3.549,10.689-10.842,17.834-14.465
		c0.648,4.5-4.744,6.713-8.191,8.678c-0.082,0.723,0.168,1.779-0.484,1.93c-4.504,2.084-6.113,7.062-11.086,8.678
		c-5.008,6.723-12.312,11.145-17.83,17.359c26.494-17.693,50.143-38.234,76.148-56.412c-0.025,1.471,1.734,1.156,1.443,2.893
		c-24.055,19.328-49.258,37.504-73.736,56.41c4.014-1.285,5.848-4.758,10.604-5.303c4.184-3.529,8.52-6.908,14.457-8.68
		c0.02-2.068,1.773-2.404,3.855-2.41c0.99-2.385,3.262-3.486,6.266-3.857c2.098-2.727,6.396-5.809,10.121-5.303
		c-1.066,4.717-7.545,4.021-9.641,7.713c-1.549-0.105-2.039,0.854-3.855,0.482c-1.434,2.826-4.783,4.178-7.227,5.785
		c-2.551,1.678-5.121,4.119-8.678,4.342c-3.314,4.555-10.189,5.555-13.975,9.641c23.766-10.133,44.672-23.133,67.953-33.75
		c-0.082-1.207,1.078-1.17,1.449-1.928c3.926-0.537,10.039-7.096,13.01-2.41c-5.943,4.924-13.283,8.072-20.24,11.57
		c-21.301,10.715-42.871,21.547-63.619,32.785c16.979-7.441,34.717-14.127,52.053-21.213c-0.363,1.648,1.957,0.611,1.443,2.41
		c-15.221,7.113-33.527,11.137-47.229,19.77c22.535-4.646,50.428-15.047,74.219-21.217c1.062-0.275,2.238-0.174,3.373-0.48
		c4.885-1.332,12.541-7.326,14.941-0.963c-1.406,2.262-4.287,1.395-6.268,1.926c-28.879,7.785-58.113,17.922-86.75,26.037
		c7.965-0.551,13.996-3.037,22.652-2.895c6.73-1.158,17.188-4.357,26.023-4.818c1.961-0.104,5-0.629,6.268,1.443
		c-2.912,2.553-8.549,2.377-13.979,2.412c-13.021,2.609-26.977,4.008-41.445,6.75c42.062-2.824,86.125-4.334,125.789-8.195
		c1.002,0.766,2.562,0.969,3.855,1.445c0,0.805,0,1.607,0,2.41c-0.469,0.016-0.375,0.592-0.484,0.965
		c-45.938,2.674-85.543,4.42-130.607,7.713c0.096,1.629,2.443,2.303,2.893,2.412c6.387,1.572,16.012,0.922,22.172,0
		c6.801-1.02,10.824-4.684,17.348-3.855c6.422,0.811,10.32,5.695,18.314,4.818c-0.264,0.703,0.562,2.494-0.482,2.412
		c6.096,5.312,11.684,11.133,23.615,10.607c0.143,2.133,2.76,3.494,0.482,5.303c6.445,4.318,14.002,7.529,19.277,13.02
		c8.988,1.283,28.402,0.578,24.098,13.5c-4.598-1.512-6.703-5.508-11.086-7.234c-4.645-0.414-10.383-1.066-13.975-2.41
		c-4.08-1.527-5.414-5.27-9.639-7.715c-2.816-1.629-6.545-2.512-9.639-4.82c-2.602-1.941-5.186-5.262-7.711-6.268
		c-1.236-0.492-2.697,0.035-3.855-0.482c-10.127-4.533-17.76-15.566-30.363-16.875c-6.809-0.707-16.611,4.469-22.17,7.232
		c-6.031,2.998-14.164,6.609-19.279,11.088c-10.381-0.422-15.498,4.426-23.613,6.268c-1.955,0.668-5.756,3.693-7.23,0.482
		c1.928-4.875,8.221-4.512,12.529-6.266c3.996-1.629,7.217-4.309,11.566-4.342c4.604-11.6,1.035-22.33-4.336-29.893
		c-1.266-1.777-3.008-2.699-4.818-4.338c-0.768-0.693-1.002-2.439-0.963-2.412c-0.492-0.379-1.832,0.262-2.412,0
		c-0.68-0.307-1.184-2.262-1.443-2.41c-1.004-0.566-2.867-0.039-3.855-0.48c-1.369-0.615-2.465-2.836-3.855-3.375
		c-3.855-1.496-14.66-2.227-19.762-0.967c-7.459,1.846-12.684,7.887-19.277,12.057c0.236,1.52-0.869,1.701-0.482,3.375
		c-4.309,1.473-3.551,8.018-6.264,11.088c-0.365,8.076,0.109,15.316,2.406,20.73c4.812,1.779,10.162,3.014,13.016,6.75
		c1.645-0.439,3.451-0.725,4.818-1.443c14.885-2.799,21.049,7.496,30.363,11.568c8.227,3.598,17.459,4.561,20.721,12.537
		c-3.957,3.154-6.061-2.307-8.674-3.855c-3.896-2.312-8.592-2.611-13.01-4.34c-6.5-2.547-11.809-9.451-19.762-11.572
		c-9.334-2.822-17.207,5.742-21.688,1.447c-0.164-2.094,1.326-2.531,2.893-2.895c-7.92-5.18-18.646-4.363-26.99-10.125
		c-6.357-4.391-12.238-7.096-19.277-11.09c-6.264-3.553-11.852-8.299-21.688-6.266c-2.902,0.598-6.58,2.508-8.676,3.855
		c-5.562,3.58-10.168,8.488-16.867,12.053c-11.65,3.166-20.494,10.65-29.4,16.875c-4.611,3.229-9.682,4.875-14.457,7.717
		c-1.768,1.051-3.809,4.707-6.748,1.928c2.66-6.51,10.457-7.6,15.904-11.088c5.57-3.57,10.77-7.438,15.424-11.574
		c7.475-3.812,16.055-6.34,24.096-11.57c6.527-4.246,11.652-10.334,18.795-12.055c8.871-2.133,17.643,1.27,24.1,5.305
		c10.416-0.455,20.174,2.312,30.361,0.482c-35.705-6.697-75.707-12.107-112.293-17.838c-5.449-0.854-11.59,0.129-15.904-3.859
		c1.689-4.061,6.186-1.293,8.193-0.965c39.242,6.395,82.311,11.742,120.969,17.84c-5.99-4.227-17.594-3.848-27.471-5.785
		c-3.615-0.711-6.889-2.828-10.121-3.375c-7.459-1.264-14.221-1.18-20.242-4.34c1.691-4.199,6.668-1.074,8.676-0.48
		c4.006,1.184,9.203,1.258,13.977,2.408c11.67,2.822,24.355,5.479,36.145,8.197c-5.396-2.795-11.236-5.152-18.314-6.266
		c-4.141-3.572-11.609-3.816-16.385-6.75c-4.273-0.258-6.338,1.691-11.084,0.963c-0.623-2.391,1.736-1.799,1.928-3.375
		c-9.527-6.482-23.227-7.535-34.701-12.537c-0.447-0.195-0.16-1.244-0.482-1.445c-5.658-3.512-14.787-1.229-15.422-7.715
		c4.041-1.586,8.389,1.092,12.049,2.41c27.238,9.828,56.09,20.73,83.857,30.375c-2.857-4.691-10.34-4.762-15.904-6.75
		c-0.24-3.131-5.062-1.684-5.301-4.82c-7.84-2.283-14.986-5.258-20.723-9.643c-4.236-0.584-7.512-2.131-9.639-4.822
		c0.148-0.652,1.205-0.4,1.928-0.482c0.031-1.658,2.828,1.455,5.301,0.482c5.436,3.723,11.422,6.896,18.797,8.678
		c-0.598,1.561,1.559,0.369,0.963,1.932c6.805,1.066,9.369,6.375,16.867,6.75c0,0.641,0,1.285,0,1.926
		c4.377-0.195,4.475,3.883,9.641,2.893c-3.807-3.586-11.045-7.912-17.834-10.125c0.514-1.795-1.807-0.762-1.445-2.408
		c-15.371-8.379-29.781-16.732-45.303-25.555c-4.924-2.799-9.09-7.029-14.939-8.197c-3.984-3.891-9.219-6.529-14.941-8.678
		c-8.266-6.119-18.455-11.734-28.434-17.357c-3.256-1.834-5.166-4.098-9.641-4.822c-0.229-1.727-0.783-2.785,0-4.338
		c3.205-0.473,4.758,0.705,5.785,2.41c0.803,0,1.605,0,2.408,0c0.539,1.713,2.822,1.678,3.373,3.375
		c41.758,23.477,82.275,48.193,123.863,71.84c-0.285-2.611-3.5-2.287-3.855-4.822c-12.641-5.033-20.164-15.188-32.773-20.25
		c-0.93-4.051-6.195-3.768-6.748-8.195c8.781,2.465,12.498,9.996,21.205,12.535c5.027,5.416,11.688,9.201,17.832,13.5
		c-18.66-16.771-41.328-34.172-62.172-51.107c-2.461-2-7.258-4.568-6.264-8.678c3.693-0.32,4.895,1.852,6.264,3.855
		c22.111,16.293,41.836,34.971,64.1,51.109c0.076-2.021-2.104-1.742-3.373-2.895c-1.305-1.184-1.822-4.164-4.82-3.857
		c-4.41-7.158-10.918-12.217-17.35-17.357c-0.41-4.693-7.189-5.172-6.264-9.643c2.113,0.297,4.111,0.709,3.855,3.375
		c1.117-0.154,1.85,0.078,2.408,0.482c4.254,5.869,9.486,10.762,15.422,14.947c2.959,5.074,7.891,8.18,12.051,12.053
		c0.012-3.232-3.279-7.324-6.748-8.678c-1.096-2.602-2.141-5.254-4.82-6.268c0.197-1.162-0.881-1.049-0.482-2.412
		C134.078,97.917,107.184,66.804,81.777,34.202z M227.807,139.31c1.277,0.379,2.93-2.584,0.963-2.41
		C229.131,138.386,227.109,137.487,227.807,139.31z M155.996,187.526c3.434,0,7.822,1.145,8.674-1.449
		c-5.266-3.133-16.6-0.02-23.615-2.41C142.568,188.081,149.615,187.526,155.996,187.526z M261.062,184.632
		c-3.326-1.979-10.088-0.516-14.941-0.965C249.848,184.796,256.98,187.362,261.062,184.632z M253.348,188.489
		c-2.691-0.037-3.848-1.615-7.227-0.963C247.26,189.499,252.07,190.745,253.348,188.489z M164.67,190.417
		c-3.217-1.119-8.51-0.164-12.529-0.48C154.961,194.372,161.324,191.796,164.67,190.417z"/>
</g>
</svg>
