<?xml version="1.0" encoding="utf-8"?>
<!-- Generator: Adobe Illustrator 15.0.3, SVG Export Plug-In . SVG Version: 6.00 Build 0)  -->
<!DOCTYPE svg PUBLIC "-//W3C//DTD SVG 1.1//EN" "http://www.w3.org/Graphics/SVG/1.1/DTD/svg11.dtd">
<svg version="1.1"
	 id="Ebene_1" xmlns:dc="http://purl.org/dc/elements/1.1/" xmlns:cc="http://creativecommons.org/ns#" xmlns:svg="http://www.w3.org/2000/svg" xmlns:rdf="http://www.w3.org/1999/02/22-rdf-syntax-ns#" xmlns:ns="http://ns.adobe.com/SaveForWeb/1.0/"
	 xmlns="http://www.w3.org/2000/svg" xmlns:xlink="http://www.w3.org/1999/xlink" x="0px" y="0px" width="298.498px" height="297px"
	 viewBox="6.523 -1.352 298.498 297" enable-background="new 6.523 -1.352 298.498 297" xml:space="preserve">
<rect id="rect7_1_" x="6.523" y="-1.352" fill="#29A53E" width="298.498" height="297"/>
<path id="path3807_5_" fill="none" stroke="#0E2618" stroke-width="20.3323" d="M278.273,147.169
	c-0.012,67.653-54.867,122.491-122.521,122.479C88.095,269.637,33.26,214.781,33.272,147.127
	c0.009-67.655,54.864-122.49,122.52-122.479c67.326,0.012,122.025,54.354,122.475,121.678L278.273,147.169z"/>
<g>
	<path id="path3807_4_" fill="none" stroke="#0E2618" stroke-width="4.4731" d="M182.615,147.271
		c-0.002,14.885-12.072,26.948-26.955,26.946c-14.887-0.004-26.949-12.07-26.945-26.956c0.002-14.883,12.07-26.947,26.955-26.943
		c14.811,0.002,26.846,11.958,26.943,26.769L182.615,147.271L182.615,147.271z"/>
	<line id="line17_1_" fill="none" stroke="#0E2618" stroke-width="4.4731" x1="33.382" y1="136.036" x2="128.713" y2="142.413"/>
	<line id="line19_1_" fill="none" stroke="#0E2618" stroke-width="4.4731" x1="182.615" y1="142.413" x2="276.95" y2="136.036"/>
	<line id="line25_1_" fill="none" stroke="#0E2618" stroke-width="4.4731" x1="182.615" y1="150.656" x2="278.163" y2="158.016"/>
	<line id="line31_1_" fill="none" stroke="#0E2618" stroke-width="4.4731" x1="33.803" y1="158.016" x2="128.932" y2="150.656"/>
	<line id="line17_2_" fill="none" stroke="#0E2618" stroke-width="4.4731" x1="104.304" y1="35.66" x2="146.448" y2="121.407"/>
	<line id="line19_2_" fill="none" stroke="#0E2618" stroke-width="4.4731" x1="173.398" y1="168.086" x2="226.089" y2="246.596"/>
	<line id="line25_2_" fill="none" stroke="#0E2618" stroke-width="4.4731" x1="166.259" y1="172.209" x2="207.659" y2="258.637"/>
	<line id="line31_2_" fill="none" stroke="#0E2618" stroke-width="4.4731" x1="85.48" y1="47.014" x2="139.418" y2="125.718"/>
	<line id="line17_3_" fill="none" stroke="#0E2618" stroke-width="4.4731" x1="226.695" y1="46.892" x2="173.507" y2="126.262"/>
	<line id="line19_3_" fill="none" stroke="#0E2618" stroke-width="4.4731" x1="146.556" y1="172.941" x2="104.91" y2="257.828"/>
	<line id="line25_3_" fill="none" stroke="#0E2618" stroke-width="4.4731" x1="139.417" y1="168.82" x2="85.268" y2="247.889"/>
	<line id="line31_3_" fill="none" stroke="#0E2618" stroke-width="4.4731" x1="207.448" y1="36.267" x2="166.258" y2="122.33"/>
</g>
<path id="path3807_3_" d="M163.57,147.15c-0.002,4.479-3.492,8.11-7.799,8.109s-7.796-3.633-7.795-8.113
	c0.001-4.478,3.493-8.111,7.797-8.11c4.285,0.001,7.768,3.601,7.795,8.058L163.57,147.15L163.57,147.15z"/>
</svg>
