<svg xmlns="http://www.w3.org/2000/svg" width="400" height="400">
  <path d="M69.325 327.061c7.886-1.214 13.238-4.961 13.904-13.396-2.121-28.26 2.242-55.523 5.765-82.915 14.258 24.528 18.968 48.76 16.617 71.894 9.642-17.02 13.179-12.668 12.886 5.087l8.817-23.4 12.04 26.622c4.62-47.416 3.051-35.552 4.068-55.446 7.46 18.338 12.379 32.918 19.84 52.902 5.023-56.767-2.58-111.767-16.957-165.827l3.73-16.278L156.48 128c14.395 41.224 28.403 76.648 27.13 120.559l22.89-24.925 11.022 11.868-22.508 26.044-4.453 12.107c.283 49.414 1.752 28.656 2.035 46.46 5.89 5.405 14.507 10.177 15.77-.169 2.575-28.232 9.41-51.698 33.573-71.385 2.766-1.046 3.905.032 3.051 3.052-7.069 17.151-14.015 41.454-11.7 56.124-.802 2.48.442 5.463 4.602 1.746 1.545-2.465 6.088-5.741 7.777-6.833l4.917 5.597c2.006.54 4.179 4.814 9.249-3.302 4.216-4.696 7.216-13.197 10.928-22.133 3.192-4.2 3.988-1.752 4.999.162l3.818 6.111c10.608-13.81 13.32-24.243 27.809-33.742 3.619-1.867 10.917-5.935 4.53 2.986-6.392 15.492-7.714 33.239-10.295 50.426 5.079 3.211 8.182-5.362 12.548-8.478 2.22 3.413 1.278 9.64 7.12 9.835l6.783-.34 10.173 12.548c1.49 7.013-2.848 5.581-6.781 3.73l-5.766-9.835-9.156 9.835-8.478-10.513-9.835 12.886c-2.316-19.868 2.303-50.48-.338-49.85-12.856 11.233-22.994 31.754-20.687 44.763-1.924 2.31-2.812 7.212-8.139 1.018l-3.392-14.583-9.155 13.226c-3.466 2.73-4.959 7.116-11.021 1.187-3.146-6.972-7.653-5.506-13.057 1.526l-4.408 3.392c.121-14.247-.421-28.21 2.712-43.748-11.258 5.535-17.995 16.88-16.616 38.662-6.541 5.218-12.077 12.388-26.452 2.373l-1.017-59.515c8.366-12.708 16.73-19.843 25.094-29.334l-6.103-5.765-25.435 28.826c-.895-45.053-11.592-88.21-26.45-130.566-1.59.423-3.435-.084-3.73 5.086 14.44 62.047 21.052 124.585 21.025 187.533-2.364 3.533-3.952 5.584-11.192 10.004l-3.392-26.282-8.817-22.043-3.052 43.747c-5.142-5.598-9.663-11.814-13.904-18.313l-2.713 12.208-26.452 5.426-7.46-52.225-6.444 55.616-15.939 2.034c-7.492 1.27-3.905-2.736-2.373-5.765z"/>
  <path d="M291.102 82.361c-28.491-.822-64.71 27.491-37.291 78.871-46.204.736-72.077 32.97-52.802 64.713 20.936 34.482 76.583-9.15 77.333-15.977 6.871 39.989 46.39 46.011 62.965 23.159 25.836-35.627-16.024-56.314-42.731-65.112 46.744-25.683 23.804-84.75-7.475-85.654zm-3.555 17.83c36.172-.526 32.1 48.162 11.699 61.383-5.324 2.92-10.602 2.514-14.583-4.41l3.73-29.505c1.516-7.928-1.664-8.33-4.407-1.017l-5.428 30.86c-.99 6.605-3.816 8.567-12.887.339-26.345-29.06-1.843-57.305 21.875-57.65zm-5.426 66.975a7.8 5.765 0 0 1 7.8 5.765 7.8 5.765 0 0 1-7.8 5.764 7.8 5.765 0 0 1-7.8-5.764 7.8 5.765 0 0 1 7.8-5.765zm-33.022 1.992c7.65.188 13.86 2.473 15.565 6.658-9.455 5.462-19.11 8.836-28.149 18.65-5.114 6.435-1.14 8.057 2.713 4.071 8.29-5.581 16.96-12.67 24.418-14.922 11.611-4.822 12.986 4.84 11.192 9.157-5.348 32.267-53.569 37.709-61.383 19.33-12.845-30.21 16.098-43.424 35.645-42.943zm52.393 8.219c28.735.237 51.085 44.665 25.678 57.238-27.965 13.838-42.607-18.257-41.489-34.393 1.409-20.079 7.851-15.82 14.583-10.173 5.171 5.709 10.173 11.755 13.565 21.025 3.579 4.648 5.572 4.721 5.086-2.373-2.081-10.513-12.775-20.517-21.704-31.03a27.88 27.88 0 0 1 4.281-.294z"/>
  <path d="M104.943 20.602c-7.177-.023-14.627 2.065-22.015 6.955-42.446 28.095 7.098 77.463 24.937 91.123-48.82 5.996-66.904 55.373-44.604 77.215 22.302 21.842 74.827-5.94 83.93-50.838l4.797-18.225c31.255 16.41 109.548.74 93.519-53.234-9.926-33.42-81.275-8.455-90.164 10.072 6.648-23.221-19.3-62.969-50.4-63.068zm-.041 18.317c17.95-.227 44.222 11.04 42.289 48.591 1.143 12.125 1.268 22.757-13.908 11.029-11.613-10.215-20.671-32.038-26.137-41.963-5.613 11.941 8.17 27.72 19.425 43.88 7.31 12.215-3.277 10.665-11.99 10.554-21.639-12.165-47.65-50.505-23.5-68.582 2.78-2.082 7.838-3.434 13.822-3.51zm94.511 31.026c10.85-.007 21.638 4.452 29.371 15.646 11.736 16.989-26.412 54.113-66.072 37.579-11.02-1.246-6.304-11.529-1.299-11.791 10.372-3.553 18-8.537 34.22-10.92 7.978.191 10.482-7.437-2.427-6.176-8.696 4.11-23.147 7.9-35.46 12.412-3.012-17.994 19.453-36.736 41.667-36.75zm-57.74 36.616a8.634 10.608 59.129 0 1 7.908 3.735 8.634 10.608 59.129 0 1-4.674 12.854 8.634 10.608 59.129 0 1-13.535-1.97 8.634 10.608 59.129 0 1 4.674-12.853 8.634 10.608 59.129 0 1 5.627-1.766zm-22.908 17.611c6.613.149 6.045 3.008.41 8.065-6.196 2.775-19.709 12.614-25.773 24.078-3.086 2.98-3.888 9.865 2.035 5.256 9.25-9.354 16.807-20.473 26.451-24.416 14.6-10.923 14.358-.536 11.53 13.564 1.203 13.386-30.997 57.243-63.416 32.557-15.057-11.465 7.35-53.183 39.678-58.33 3.879-.571 6.882-.823 9.086-.773z"/>
  <path fill="none" stroke="#000" stroke-width="15" d="M126.53 33.694a185 185 0 0 1 237.37 80.328 185 185 0 0 1-60.458 243.2 185 185 0 0 1-247.36-40.175A185 185 0 0 1 75.7 67.217"/>
</svg>
